<?xml version="1.0" standalone="no"?>
<!DOCTYPE svg PUBLIC "-//W3C//DTD SVG 20010904//EN"
 "http://www.w3.org/TR/2001/REC-SVG-20010904/DTD/svg10.dtd">
<svg version="1.0" xmlns="http://www.w3.org/2000/svg"
 width="1054.000000pt" height="1054.000000pt" viewBox="0 0 1054.000000 1054.000000"
 preserveAspectRatio="xMidYMid meet">
<metadata>
Created by potrace 1.11, written by Peter Selinger 2001-2013
</metadata>
<g transform="translate(0.000000,1054.000000) scale(0.100000,-0.100000)"
fill="#000000" stroke="none">
<path d="M299 6707 c-1 -16 -1 -3015 0 -3045 l1 -22 337 2 338 3 -1 598 c0
530 2 597 16 598 79 4 736 -1 770 -6 205 -27 307 -112 368 -305 31 -96 47
-208 67 -450 11 -148 17 -199 31 -270 19 -92 17 -87 33 -132 l13 -38 334 0
c184 0 334 3 334 8 0 4 -8 21 -18 37 -26 42 -59 151 -67 220 -2 11 -6 43 -9
70 -11 87 -14 127 -21 260 -3 72 -8 150 -12 175 -3 25 -5 52 -5 60 0 38 -40
210 -60 260 -61 151 -153 257 -273 315 -38 18 -79 36 -90 40 -16 5 -4 14 59
46 155 78 248 168 316 303 72 147 96 263 93 461 -4 263 -118 489 -325 643 -95
71 -222 129 -328 151 -30 6 -66 14 -80 18 -14 3 -429 7 -922 9 -675 2 -898 -1
-899 -9z m1503 -521 c191 -15 306 -95 355 -245 8 -25 17 -93 19 -151 8 -217
-56 -351 -197 -415 -103 -46 -162 -51 -599 -50 l-405 0 -1 432 0 432 35 3 c64
5 713 1 793 -6z"/>
<path d="M3410 5179 l0 -1539 338 2 337 3 0 492 c1 271 3 494 5 497 100 108
385 385 390 379 7 -8 785 -1169 805 -1201 6 -9 33 -50 61 -91 l52 -76 427 -3
428 -2 -25 32 c-14 18 -103 143 -198 278 -96 135 -223 315 -283 400 -61 85
-136 192 -168 236 -107 152 -592 839 -621 879 l-28 39 304 306 c168 168 397
400 511 515 113 116 247 251 297 301 l90 92 -420 0 -421 -1 -93 -97 c-90 -94
-323 -339 -388 -410 -18 -19 -94 -100 -170 -180 -76 -80 -152 -161 -170 -180
-18 -19 -96 -102 -174 -184 -77 -82 -154 -164 -170 -182 -16 -19 -31 -34 -35
-34 -3 0 -6 285 -6 633 l0 632 -337 1 -338 2 0 -1539z"/>
<path d="M6490 6545 l0 -173 88 0 c48 0 161 0 252 -1 l165 -1 0 -710 c0 -625
2 -711 15 -714 8 -2 107 -3 220 -3 l205 2 0 713 0 712 25 1 c14 0 127 1 253 1
l227 0 0 173 0 172 -725 0 -725 1 0 -173z"/>
<path d="M8169 6701 c0 -23 0 -1701 0 -1732 l1 -26 205 0 205 0 1 576 c0 317
0 601 0 631 l-1 55 17 -35 c26 -56 28 -64 117 -310 46 -129 91 -253 99 -275 9
-22 64 -173 122 -335 59 -162 111 -298 116 -301 6 -3 74 -5 152 -5 l142 1 107
295 c60 162 115 313 122 335 8 22 33 90 54 150 80 223 164 450 173 465 5 9 9
-258 9 -616 l0 -631 205 0 c113 0 205 4 206 9 0 4 1 397 1 873 0 476 -1 871
-1 879 -1 12 -48 14 -290 14 l-290 -1 -10 -26 c-6 -14 -76 -199 -156 -411 -80
-212 -150 -395 -155 -406 -5 -12 -32 -84 -60 -160 -29 -77 -55 -142 -59 -147
-4 -4 -79 181 -166 410 -87 230 -186 490 -220 578 l-61 160 -292 1 c-263 1
-292 0 -293 -15z"/>
</g>
</svg>
